<svg width="196" height="78" viewBox="0 0 196 78" fill="none" xmlns="http://www.w3.org/2000/svg">
<path d="M29.22 62C27.38 62 25.9 61.54 24.78 60.62C23.66 59.66 23 58.3 22.8 56.54H22.5C21.94 58.58 20.82 60.12 19.14 61.16C17.5 62.2 15.48 62.72 13.08 62.72C10.08 62.72 7.66 61.92 5.82 60.32C4.02 58.68 3.12 56.4 3.12 53.48C3.12 50.24 4.3 47.84 6.66 46.28C9.02 44.72 12.48 43.94 17.04 43.94H22.02V42.38C22.02 40.54 21.58 39.16 20.7 38.24C19.86 37.28 18.42 36.8 16.38 36.8C14.5 36.8 12.98 37.16 11.82 37.88C10.66 38.6 9.66 39.54 8.82 40.7L3.96 36.38C5 34.62 6.62 33.18 8.82 32.06C11.06 30.9 13.92 30.32 17.4 30.32C21.64 30.32 24.94 31.3 27.3 33.26C29.7 35.18 30.9 38.1 30.9 42.02V55.58H34.32V62H29.22ZM16.44 56.9C18 56.9 19.32 56.52 20.4 55.76C21.48 55 22.02 53.9 22.02 52.46V48.74H17.28C13.64 48.74 11.82 49.96 11.82 52.4V53.6C11.82 54.68 12.24 55.5 13.08 56.06C13.92 56.62 15.04 56.9 16.44 56.9ZM40.4166 55.1H47.5566V37.94H40.4166V31.04H56.4366V39.8H56.8566C57.1366 38.68 57.5166 37.6 57.9966 36.56C58.5166 35.48 59.1566 34.54 59.9166 33.74C60.7166 32.9 61.6766 32.24 62.7966 31.76C63.9166 31.28 65.2366 31.04 66.7566 31.04H69.6966V39.2H63.0966C60.8966 39.2 59.2366 39.86 58.1166 41.18C56.9966 42.46 56.4366 44.04 56.4366 45.92V55.1H66.6366V62H40.4166V55.1ZM91.8731 27.08C89.8731 27.08 88.4731 26.68 87.6731 25.88C86.9131 25.04 86.5331 24.04 86.5331 22.88V21.14C86.5331 19.94 86.9131 18.94 87.6731 18.14C88.4731 17.34 89.8731 16.94 91.8731 16.94C93.8731 16.94 95.2531 17.34 96.0131 18.14C96.8131 18.94 97.2131 19.94 97.2131 21.14V22.88C97.2131 24.04 96.8131 25.04 96.0131 25.88C95.2531 26.68 93.8731 27.08 91.8731 27.08ZM77.5931 55.1H87.4331V37.94H77.5931V31.04H96.3131V55.1H105.433V62H77.5931V55.1ZM128.33 62C125.13 62 122.75 61.16 121.19 59.48C119.63 57.8 118.85 55.66 118.85 53.06V37.94H110.45V31.04H115.91C117.23 31.04 118.17 30.78 118.73 30.26C119.29 29.74 119.57 28.78 119.57 27.38V20.12H127.73V31.04H139.79V37.94H127.73V55.1H139.79V62H128.33ZM147.806 17.6H156.686V36.68H157.046C157.406 35.8 157.846 34.98 158.366 34.22C158.886 33.46 159.506 32.8 160.226 32.24C160.986 31.64 161.846 31.18 162.806 30.86C163.806 30.5 164.926 30.32 166.166 30.32C167.646 30.32 169.006 30.58 170.246 31.1C171.486 31.58 172.546 32.32 173.426 33.32C174.306 34.32 174.986 35.54 175.466 36.98C175.986 38.42 176.246 40.08 176.246 41.96V62H167.366V43.16C167.366 39.16 165.626 37.16 162.146 37.16C161.466 37.16 160.786 37.26 160.106 37.46C159.466 37.62 158.886 37.9 158.366 38.3C157.846 38.66 157.426 39.12 157.106 39.68C156.826 40.24 156.686 40.9 156.686 41.66V62H147.806V17.6Z" fill="black"/>
<path d="M188.14 28.3C187.473 28.3 186.887 28.1933 186.38 27.98C185.887 27.7533 185.467 27.4467 185.12 27.06C184.773 26.6733 184.513 26.22 184.34 25.7C184.167 25.18 184.08 24.62 184.08 24.02C184.08 23.34 184.187 22.7333 184.4 22.2C184.627 21.6667 184.933 21.22 185.32 20.86C185.707 20.5 186.16 20.2267 186.68 20.04C187.2 19.84 187.767 19.74 188.38 19.74C188.86 19.74 189.287 19.8 189.66 19.92C190.033 20.0267 190.347 20.18 190.6 20.38C190.853 20.58 191.04 20.8133 191.16 21.08C191.293 21.3333 191.36 21.6067 191.36 21.9C191.36 22.2733 191.253 22.5667 191.04 22.78C190.827 22.9933 190.533 23.1 190.16 23.1C189.813 23.1 189.54 23 189.34 22.8C189.14 22.5867 189.04 22.3133 189.04 21.98C189.04 21.7267 189.093 21.52 189.2 21.36C189.307 21.1867 189.453 21.0533 189.64 20.96V20.92C189.533 20.88 189.407 20.8467 189.26 20.82C189.113 20.78 188.913 20.76 188.66 20.76C188.02 20.76 187.52 20.96 187.16 21.36C186.813 21.7467 186.64 22.3 186.64 23.02V24.64C186.64 25.3467 186.827 25.8733 187.2 26.22C187.573 26.5667 188.06 26.74 188.66 26.74C189.207 26.74 189.633 26.6067 189.94 26.34C190.247 26.06 190.487 25.7333 190.66 25.36L191.54 25.88C191.433 26.1467 191.287 26.4267 191.1 26.72C190.927 27 190.7 27.26 190.42 27.5C190.14 27.7267 189.813 27.92 189.44 28.08C189.067 28.2267 188.633 28.3 188.14 28.3ZM187.98 30.08C188.793 30.08 189.54 29.9467 190.22 29.68C190.913 29.4 191.507 29.02 192 28.54C192.493 28.0467 192.873 27.4733 193.14 26.82C193.42 26.1667 193.56 25.46 193.56 24.7V23.34C193.56 22.58 193.42 21.8733 193.14 21.22C192.873 20.5667 192.493 20 192 19.52C191.507 19.0267 190.913 18.6467 190.22 18.38C189.54 18.1 188.793 17.96 187.98 17.96C187.167 17.96 186.413 18.1 185.72 18.38C185.04 18.6467 184.453 19.0267 183.96 19.52C183.467 20 183.08 20.5667 182.8 21.22C182.533 21.8733 182.4 22.58 182.4 23.34V24.7C182.4 25.46 182.533 26.1667 182.8 26.82C183.08 27.4733 183.467 28.0467 183.96 28.54C184.453 29.02 185.04 29.4 185.72 29.68C186.413 29.9467 187.167 30.08 187.98 30.08ZM187.98 31.24C186.967 31.24 186.033 31.0733 185.18 30.74C184.34 30.4067 183.613 29.9267 183 29.3C182.387 28.6733 181.907 27.92 181.56 27.04C181.213 26.1467 181.04 25.14 181.04 24.02C181.04 22.9 181.213 21.9 181.56 21.02C181.907 20.1267 182.387 19.3667 183 18.74C183.613 18.1133 184.34 17.6333 185.18 17.3C186.033 16.9667 186.967 16.8 187.98 16.8C188.993 16.8 189.92 16.9667 190.76 17.3C191.613 17.6333 192.347 18.1133 192.96 18.74C193.573 19.3667 194.053 20.1267 194.4 21.02C194.747 21.9 194.92 22.9 194.92 24.02C194.92 25.14 194.747 26.1467 194.4 27.04C194.053 27.92 193.573 28.6733 192.96 29.3C192.347 29.9267 191.613 30.4067 190.76 30.74C189.92 31.0733 188.993 31.24 187.98 31.24Z" fill="black"/>
</svg>
