<svg width="16" height="19" viewBox="0 0 16 19" fill="none" xmlns="http://www.w3.org/2000/svg">
<path d="M3.75 18.7344H12.8047C13.6953 18.7344 14.3776 18.4974 14.8516 18.0234C15.3255 17.5547 15.5625 16.8776 15.5625 15.9922V8.49219C15.5625 7.60677 15.3255 6.92969 14.8516 6.46094C14.3776 5.98698 13.6953 5.75 12.8047 5.75H10.7891V7.76562H12.5781C12.8906 7.76562 13.1302 7.84635 13.2969 8.00781C13.4635 8.16406 13.5469 8.40885 13.5469 8.74219V15.75C13.5469 16.0781 13.4635 16.3203 13.2969 16.4766C13.1302 16.638 12.8906 16.7188 12.5781 16.7188H3.96875C3.65625 16.7188 3.41667 16.638 3.25 16.4766C3.08854 16.3203 3.00781 16.0781 3.00781 15.75V8.74219C3.00781 8.40885 3.08854 8.16406 3.25 8.00781C3.41667 7.84635 3.65625 7.76562 3.96875 7.76562H5.80469V5.75H3.75C2.85938 5.75 2.17708 5.98698 1.70312 6.46094C1.22917 6.92969 0.992188 7.60677 0.992188 8.49219V15.9922C0.992188 16.8828 1.22917 17.5625 1.70312 18.0312C2.17708 18.5 2.85938 18.7344 3.75 18.7344ZM8.27344 12.3203C8.52865 12.3203 8.74219 12.2318 8.91406 12.0547C9.09115 11.8776 9.17969 11.6667 9.17969 11.4219V3.82031L9.10156 2.67188L9.50781 3.28125L10.4531 4.28125C10.6146 4.45312 10.8125 4.53906 11.0469 4.53906C11.25 4.53906 11.4297 4.46875 11.5859 4.32812C11.7474 4.1875 11.8281 4.00781 11.8281 3.78906C11.8281 3.58594 11.7474 3.40104 11.5859 3.23438L8.99219 0.75C8.8724 0.630208 8.7526 0.546875 8.63281 0.5C8.51823 0.453125 8.39844 0.429688 8.27344 0.429688C8.15365 0.429688 8.03385 0.453125 7.91406 0.5C7.79948 0.546875 7.68229 0.630208 7.5625 0.75L4.96875 3.23438C4.80729 3.40104 4.72656 3.58594 4.72656 3.78906C4.72656 4.00781 4.80469 4.1875 4.96094 4.32812C5.11719 4.46875 5.29948 4.53906 5.50781 4.53906C5.74219 4.53906 5.9401 4.45312 6.10156 4.28125L7.03906 3.28125L7.45312 2.67188L7.375 3.82031V11.4219C7.375 11.6667 7.46094 11.8776 7.63281 12.0547C7.8099 12.2318 8.02344 12.3203 8.27344 12.3203Z" fill="black"/>
</svg>
