<svg width="548" height="218" viewBox="0 0 548 218" fill="none" xmlns="http://www.w3.org/2000/svg">
<rect x="3.5" y="21.5" width="262" height="193" rx="21.5" fill="black" stroke="black" stroke-width="7"/>
<rect x="296.5" y="21.5" width="193" height="193" rx="21.5" fill="black" stroke="black" stroke-width="7"/>
<rect x="260" y="106" width="43" height="25" fill="black"/>
<mask id="path-4-inside-1_199_702" fill="white">
<path d="M262 44H300V92C300 102.493 291.493 111 281 111V111C270.507 111 262 102.493 262 92V44Z"/>
</mask>
<path d="M262 44H300H262ZM307 92C307 106.359 295.359 118 281 118C266.641 118 255 106.359 255 92H269C269 98.6274 274.373 104 281 104C287.627 104 293 98.6274 293 92H307ZM281 118C266.641 118 255 106.359 255 92V44H269V92C269 98.6274 274.373 104 281 104V118ZM307 44V92C307 106.359 295.359 118 281 118V104C287.627 104 293 98.6274 293 92V44H307Z" fill="black" mask="url(#path-4-inside-1_199_702)"/>
<mask id="path-6-inside-2_199_702" fill="white">
<path d="M300 185H262V143C262 132.507 270.507 124 281 124V124C291.493 124 300 132.507 300 143V185Z"/>
</mask>
<path d="M300 185H262H300ZM255 143C255 128.641 266.641 117 281 117C295.359 117 307 128.641 307 143H293C293 136.373 287.627 131 281 131C274.373 131 269 136.373 269 143H255ZM281 117C295.359 117 307 128.641 307 143V185H293V143C293 136.373 287.627 131 281 131V117ZM255 185V143C255 128.641 266.641 117 281 117V131C274.373 131 269 136.373 269 143V185H255Z" fill="black" mask="url(#path-6-inside-2_199_702)"/>
<path d="M94 150C90.8667 150 88.4333 149.233 86.7 147.7C85.0333 146.1 84.0333 143.9 83.7 141.1H83.2C82.2667 144.3 80.4333 146.8 77.7 148.6C74.9667 150.333 71.6 151.2 67.6 151.2C62.4 151.2 58.2667 149.833 55.2 147.1C52.1333 144.367 50.6 140.567 50.6 135.7C50.6 125.3 58.2333 120.1 73.5 120.1H82.6V116.7C82.6 113.433 81.8 110.967 80.2 109.3C78.6 107.633 76 106.8 72.4 106.8C69.1333 106.8 66.5 107.433 64.5 108.7C62.5 109.967 60.8 111.6 59.4 113.6L52.1 107.4C53.7 104.533 56.2667 102.133 59.8 100.2C63.4 98.2 68.0333 97.2 73.7 97.2C80.5 97.2 85.8 98.8 89.6 102C93.4667 105.133 95.4 109.833 95.4 116.1V140.4H101.5V150H94ZM71.9 142.4C74.9667 142.4 77.5 141.7 79.5 140.3C81.5667 138.833 82.6 136.867 82.6 134.4V127.5H73.8C66.8 127.5 63.3 129.7 63.3 134.1V136.1C63.3 138.167 64.0667 139.733 65.6 140.8C67.1333 141.867 69.2333 142.4 71.9 142.4ZM112.461 139.9H125.261V108.5H112.461V98.4H138.061V112.5H138.861C139.328 110.7 139.961 108.967 140.761 107.3C141.628 105.567 142.694 104.067 143.961 102.8C145.294 101.467 146.894 100.4 148.761 99.6C150.628 98.8 152.861 98.4 155.461 98.4H161.061V110.4H150.461C146.594 110.4 143.561 111.533 141.361 113.8C139.161 116.067 138.061 118.967 138.061 122.5V139.9H155.961V150H112.461V139.9ZM198.122 90.4C195.122 90.4 192.989 89.7667 191.722 88.5C190.522 87.2333 189.922 85.7 189.922 83.9V81.5C189.922 79.7 190.522 78.1667 191.722 76.9C192.989 75.6333 195.122 75 198.122 75C201.122 75 203.222 75.6333 204.422 76.9C205.689 78.1667 206.322 79.7 206.322 81.5V83.9C206.322 85.7 205.689 87.2333 204.422 88.5C203.222 89.7667 201.122 90.4 198.122 90.4ZM174.722 139.9H191.722V108.5H174.722V98.4H204.522V139.9H220.322V150H174.722V139.9Z" fill="white"/>
<path d="M366.5 150C361.567 150 357.933 148.7 355.6 146.1C353.267 143.5 352.1 140.133 352.1 136V108.5H337.1V98.4H347.3C349.367 98.4 350.833 98 351.7 97.2C352.567 96.3333 353 94.8333 353 92.7V80.2H364.9V98.4H385.9V108.5H364.9V139.9H385.9V150H366.5ZM400.461 76H413.261V107.5H413.761C414.894 104.7 416.628 102.3 418.961 100.3C421.361 98.2333 424.661 97.2 428.861 97.2C433.928 97.2 438.028 98.9 441.161 102.3C444.361 105.633 445.961 110.433 445.961 116.7V150H433.161V118.5C433.161 111.033 429.928 107.3 423.461 107.3C422.128 107.3 420.861 107.467 419.661 107.8C418.461 108.133 417.361 108.667 416.361 109.4C415.428 110.067 414.661 110.9 414.061 111.9C413.528 112.9 413.261 114.1 413.261 115.5V150H400.461V76Z" fill="white"/>
<path d="M523.76 62.72C520.72 62.72 517.92 62.22 515.36 61.22C512.8 60.22 510.6 58.78 508.76 56.9C506.92 55.02 505.48 52.76 504.44 50.12C503.4 47.44 502.88 44.42 502.88 41.06C502.88 37.7 503.4 34.7 504.44 32.06C505.48 29.38 506.92 27.1 508.76 25.22C510.6 23.34 512.8 21.9 515.36 20.9C517.92 19.9 520.72 19.4 523.76 19.4C526.8 19.4 529.6 19.9 532.16 20.9C534.72 21.9 536.92 23.34 538.76 25.22C540.6 27.1 542.04 29.38 543.08 32.06C544.12 34.7 544.64 37.7 544.64 41.06C544.64 44.42 544.12 47.44 543.08 50.12C542.04 52.76 540.6 55.02 538.76 56.9C536.92 58.78 534.72 60.22 532.16 61.22C529.6 62.22 526.8 62.72 523.76 62.72ZM523.76 58.88C526.16 58.88 528.36 58.48 530.36 57.68C532.36 56.84 534.08 55.72 535.52 54.32C537 52.92 538.14 51.26 538.94 49.34C539.78 47.42 540.2 45.34 540.2 43.1V39.02C540.2 36.82 539.78 34.76 538.94 32.84C538.14 30.88 537 29.2 535.52 27.8C534.08 26.4 532.36 25.3 530.36 24.5C528.36 23.66 526.16 23.24 523.76 23.24C521.36 23.24 519.16 23.66 517.16 24.5C515.16 25.3 513.42 26.4 511.94 27.8C510.5 29.2 509.36 30.88 508.52 32.84C507.72 34.76 507.32 36.82 507.32 39.02V43.1C507.32 45.34 507.72 47.42 508.52 49.34C509.36 51.26 510.5 52.92 511.94 54.32C513.42 55.72 515.16 56.84 517.16 57.68C519.16 58.48 521.36 58.88 523.76 58.88ZM524.18 53.96C522.22 53.96 520.46 53.66 518.9 53.06C517.38 52.42 516.08 51.54 515 50.42C513.92 49.3 513.1 47.96 512.54 46.4C511.98 44.8 511.7 43.02 511.7 41.06C511.7 39.1 511.98 37.34 512.54 35.78C513.1 34.18 513.92 32.82 515 31.7C516.08 30.58 517.38 29.72 518.9 29.12C520.46 28.48 522.22 28.16 524.18 28.16C527.1 28.16 529.44 28.78 531.2 30.02C532.96 31.26 534.24 32.9 535.04 34.94L529.04 37.82C528.56 36.78 527.96 35.94 527.24 35.3C526.52 34.66 525.5 34.34 524.18 34.34C522.86 34.34 521.82 34.74 521.06 35.54C520.3 36.3 519.92 37.34 519.92 38.66V43.46C519.92 44.78 520.3 45.84 521.06 46.64C521.82 47.4 522.86 47.78 524.18 47.78C525.5 47.78 526.58 47.46 527.42 46.82C528.26 46.14 528.94 45.3 529.46 44.3L535.52 47.12C535.08 48.04 534.54 48.92 533.9 49.76C533.3 50.56 532.54 51.28 531.62 51.92C530.7 52.56 529.62 53.06 528.38 53.42C527.18 53.78 525.78 53.96 524.18 53.96Z" fill="black"/>
</svg>
