<svg width="537" height="215" viewBox="0 0 537 215" fill="none" xmlns="http://www.w3.org/2000/svg">
<rect x="3.5" y="18.5" width="262" height="193" rx="21.5" fill="white" stroke="white" stroke-width="7"/>
<rect x="296.5" y="18.5" width="193" height="193" rx="21.5" fill="white" stroke="white" stroke-width="7"/>
<rect x="260" y="103" width="43" height="25" fill="white"/>
<mask id="path-4-inside-1_199_710" fill="white">
<path d="M262 41H300V89C300 99.4934 291.493 108 281 108V108C270.507 108 262 99.4934 262 89V41Z"/>
</mask>
<path d="M262 41H300H262ZM307 89C307 103.359 295.359 115 281 115C266.641 115 255 103.359 255 89H269C269 95.6274 274.373 101 281 101C287.627 101 293 95.6274 293 89H307ZM281 115C266.641 115 255 103.359 255 89V41H269V89C269 95.6274 274.373 101 281 101V115ZM307 41V89C307 103.359 295.359 115 281 115V101C287.627 101 293 95.6274 293 89V41H307Z" fill="white" mask="url(#path-4-inside-1_199_710)"/>
<mask id="path-6-inside-2_199_710" fill="white">
<path d="M300 182H262V140C262 129.507 270.507 121 281 121V121C291.493 121 300 129.507 300 140V182Z"/>
</mask>
<path d="M300 182H262H300ZM255 140C255 125.641 266.641 114 281 114C295.359 114 307 125.641 307 140H293C293 133.373 287.627 128 281 128C274.373 128 269 133.373 269 140H255ZM281 114C295.359 114 307 125.641 307 140V182H293V140C293 133.373 287.627 128 281 128V114ZM255 182V140C255 125.641 266.641 114 281 114V128C274.373 128 269 133.373 269 140V182H255Z" fill="white" mask="url(#path-6-inside-2_199_710)"/>
<path d="M93.7 147C90.6333 147 88.1667 146.233 86.3 144.7C84.4333 143.1 83.3333 140.833 83 137.9H82.5C81.5667 141.3 79.7 143.867 76.9 145.6C74.1667 147.333 70.8 148.2 66.8 148.2C61.8 148.2 57.7667 146.867 54.7 144.2C51.7 141.467 50.2 137.667 50.2 132.8C50.2 127.4 52.1667 123.4 56.1 120.8C60.0333 118.2 65.8 116.9 73.4 116.9H81.7V114.3C81.7 111.233 80.9667 108.933 79.5 107.4C78.1 105.8 75.7 105 72.3 105C69.1667 105 66.6333 105.6 64.7 106.8C62.7667 108 61.1 109.567 59.7 111.5L51.6 104.3C53.3333 101.367 56.0333 98.9667 59.7 97.1C63.4333 95.1667 68.2 94.2 74 94.2C81.0667 94.2 86.5667 95.8333 90.5 99.1C94.5 102.3 96.5 107.167 96.5 113.7V136.3H102.2V147H93.7ZM72.4 138.5C75 138.5 77.2 137.867 79 136.6C80.8 135.333 81.7 133.5 81.7 131.1V124.9H73.8C67.7333 124.9 64.7 126.933 64.7 131V133C64.7 134.8 65.4 136.167 66.8 137.1C68.2 138.033 70.0667 138.5 72.4 138.5ZM112.361 135.5H124.261V106.9H112.361V95.4H139.061V110H139.761C140.228 108.133 140.861 106.333 141.661 104.6C142.528 102.8 143.594 101.233 144.861 99.9C146.194 98.5 147.794 97.4 149.661 96.6C151.528 95.8 153.728 95.4 156.261 95.4H161.161V109H150.161C146.494 109 143.728 110.1 141.861 112.3C139.994 114.433 139.061 117.067 139.061 120.2V135.5H156.061V147H112.361V135.5ZM198.122 88.8C194.789 88.8 192.455 88.1333 191.122 86.8C189.855 85.4 189.222 83.7333 189.222 81.8V78.9C189.222 76.9 189.855 75.2333 191.122 73.9C192.455 72.5667 194.789 71.9 198.122 71.9C201.455 71.9 203.755 72.5667 205.022 73.9C206.355 75.2333 207.022 76.9 207.022 78.9V81.8C207.022 83.7333 206.355 85.4 205.022 86.8C203.755 88.1333 201.455 88.8 198.122 88.8ZM174.322 135.5H190.722V106.9H174.322V95.4H205.522V135.5H220.722V147H174.322V135.5Z" fill="black"/>
<path d="M366 147C360.667 147 356.7 145.6 354.1 142.8C351.5 140 350.2 136.433 350.2 132.1V106.9H336.2V95.4H345.3C347.5 95.4 349.067 94.9667 350 94.1C350.933 93.2333 351.4 91.6333 351.4 89.3V77.2H365V95.4H385.1V106.9H365V135.5H385.1V147H366ZM398.461 73H413.261V104.8H413.861C414.461 103.333 415.194 101.967 416.061 100.7C416.928 99.4333 417.961 98.3333 419.161 97.4C420.428 96.4 421.861 95.6333 423.461 95.1C425.128 94.5 426.994 94.2 429.061 94.2C431.528 94.2 433.794 94.6333 435.861 95.5C437.928 96.3 439.694 97.5333 441.161 99.2C442.628 100.867 443.761 102.9 444.561 105.3C445.428 107.7 445.861 110.467 445.861 113.6V147H431.061V115.6C431.061 108.933 428.161 105.6 422.361 105.6C421.228 105.6 420.094 105.767 418.961 106.1C417.894 106.367 416.928 106.833 416.061 107.5C415.194 108.1 414.494 108.867 413.961 109.8C413.494 110.733 413.261 111.833 413.261 113.1V147H398.461V73Z" fill="black"/>
<path d="M511.52 47.72L505.28 43.52L512.9 34.34L501.92 31.04L504.26 24.2L514.7 28.58L514.16 17.18H521.9L521.36 28.58L531.8 24.2L534.14 31.04L523.16 34.34L530.72 43.52L524.48 47.66L518 37.94L511.52 47.72Z" fill="#0057FF"/>
</svg>
