<svg width="32" height="31" viewBox="0 0 32 31" fill="none" xmlns="http://www.w3.org/2000/svg">
<path d="M16.0029 30.8047C18.1123 30.8047 20.0947 30.4043 21.9502 29.6035C23.8057 28.8027 25.4414 27.6943 26.8574 26.2783C28.2734 24.8623 29.3818 23.2314 30.1826 21.3857C30.9834 19.5303 31.3838 17.543 31.3838 15.4238C31.3838 13.3145 30.9834 11.332 30.1826 9.47656C29.3818 7.62109 28.2734 5.99023 26.8574 4.58398C25.4414 3.16797 23.8057 2.05957 21.9502 1.25879C20.0947 0.448242 18.1074 0.0429688 15.9883 0.0429688C13.8887 0.0429688 11.9111 0.448242 10.0557 1.25879C8.2002 2.05957 6.56445 3.16797 5.14844 4.58398C3.73242 5.99023 2.62402 7.62109 1.82324 9.47656C1.02246 11.332 0.62207 13.3145 0.62207 15.4238C0.62207 17.543 1.02246 19.5303 1.82324 21.3857C2.62402 23.2314 3.73242 24.8623 5.14844 26.2783C6.56445 27.6943 8.2002 28.8027 10.0557 29.6035C11.9111 30.4043 13.8936 30.8047 16.0029 30.8047ZM13.249 23.7881C12.8584 23.7881 12.5312 23.666 12.2676 23.4219C12.0039 23.168 11.8721 22.8408 11.8721 22.4404C11.8721 22.0791 12.0039 21.7715 12.2676 21.5176C12.5312 21.2539 12.8584 21.1221 13.249 21.1221H14.9775V15.4971H13.5273C13.1465 15.4971 12.8242 15.375 12.5605 15.1309C12.2969 14.877 12.165 14.5498 12.165 14.1494C12.165 13.7881 12.2969 13.4805 12.5605 13.2266C12.8242 12.9629 13.1465 12.8311 13.5273 12.8311H16.501C16.999 12.8311 17.3701 12.9873 17.6143 13.2998C17.8682 13.6123 17.9951 14.0322 17.9951 14.5596V21.1221H19.46C19.8506 21.1221 20.1777 21.2539 20.4414 21.5176C20.7051 21.7715 20.8369 22.0791 20.8369 22.4404C20.8369 22.8408 20.7051 23.168 20.4414 23.4219C20.1777 23.666 19.8506 23.7881 19.46 23.7881H13.249ZM15.959 10.6484C15.3438 10.6484 14.8164 10.4287 14.377 9.98926C13.9473 9.5498 13.7324 9.02734 13.7324 8.42188C13.7324 7.78711 13.9473 7.25488 14.377 6.8252C14.8164 6.38574 15.3438 6.16602 15.959 6.16602C16.5742 6.16602 17.0967 6.38574 17.5264 6.8252C17.9658 7.25488 18.1855 7.78711 18.1855 8.42188C18.1855 9.02734 17.9658 9.5498 17.5264 9.98926C17.0967 10.4287 16.5742 10.6484 15.959 10.6484Z" fill="black"/>
</svg>
