<svg width="19" height="24" viewBox="0 0 19 24" fill="none" xmlns="http://www.w3.org/2000/svg">
<path d="M3.80078 23.3594H15.0703C16.151 23.3594 16.9714 23.0794 17.5312 22.5195C18.0977 21.9596 18.3809 21.1458 18.3809 20.0781V10.5664C18.3809 9.4987 18.0977 8.6849 17.5312 8.125C16.9714 7.5651 16.151 7.28516 15.0703 7.28516H12.4824V9.46289H14.8848C15.3079 9.46289 15.6335 9.57357 15.8613 9.79492C16.0892 10.0098 16.2031 10.3418 16.2031 10.791V19.8535C16.2031 20.3027 16.0892 20.638 15.8613 20.8594C15.6335 21.0807 15.3079 21.1914 14.8848 21.1914H3.97656C3.54688 21.1914 3.2181 21.0807 2.99023 20.8594C2.76888 20.638 2.6582 20.3027 2.6582 19.8535V10.791C2.6582 10.3418 2.76888 10.0098 2.99023 9.79492C3.2181 9.57357 3.54688 9.46289 3.97656 9.46289H6.41797V7.28516H3.80078C2.72005 7.28516 1.89648 7.5651 1.33008 8.125C0.770182 8.67839 0.490234 9.49219 0.490234 10.5664V20.0781C0.490234 21.1523 0.770182 21.9661 1.33008 22.5195C1.89648 23.0794 2.72005 23.3594 3.80078 23.3594ZM9.42578 15.4785C9.71224 15.4785 9.94987 15.3809 10.1387 15.1855C10.334 14.9902 10.4316 14.7591 10.4316 14.4922V4.78516L10.3535 3.34961L10.9102 4.08203L12.209 5.45898C12.3848 5.64779 12.6029 5.74219 12.8633 5.74219C13.0977 5.74219 13.3027 5.66406 13.4785 5.50781C13.6543 5.34505 13.7422 5.13997 13.7422 4.89258C13.7422 4.66471 13.651 4.45638 13.4688 4.26758L10.207 1.13281C10.0768 1.0026 9.94661 0.914714 9.81641 0.869141C9.69271 0.817057 9.5625 0.791016 9.42578 0.791016C9.29557 0.791016 9.16862 0.817057 9.04492 0.869141C8.92122 0.914714 8.79102 1.0026 8.6543 1.13281L5.39258 4.26758C5.21029 4.45638 5.11914 4.66471 5.11914 4.89258C5.11914 5.13997 5.20378 5.34505 5.37305 5.50781C5.54883 5.66406 5.75716 5.74219 5.99805 5.74219C6.26497 5.74219 6.48633 5.64779 6.66211 5.45898L7.95117 4.08203L8.51758 3.34961L8.42969 4.78516V14.4922C8.42969 14.7591 8.52734 14.9902 8.72266 15.1855C8.91797 15.3809 9.15234 15.4785 9.42578 15.4785Z" fill="#0057FF"/>
</svg>
